<mxfile host="Electron" modified="2024-04-14T03:14:10.741Z" agent="Mozilla/5.0 (Windows NT 10.0; Win64; x64) AppleWebKit/537.36 (KHTML, like Gecko) draw.io/24.2.5 Chrome/120.0.6099.109 Electron/28.1.0 Safari/537.36" etag="VI4Ws84-BjaWF2Yem-zX" version="24.2.5" type="device">
  <diagram name="Page-1" id="e7e014a7-5840-1c2e-5031-d8a46d1fe8dd">
    <mxGraphModel dx="3559" dy="1407" grid="1" gridSize="10" guides="1" tooltips="1" connect="1" arrows="1" fold="1" page="1" pageScale="1" pageWidth="1169" pageHeight="826" background="none" math="0" shadow="0">
      <root>
        <mxCell id="0" />
        <mxCell id="1" parent="0" />
        <mxCell id="l6AXEJIedwvJvGxH8fS5-96" value="Authentication" style="swimlane;html=1;childLayout=stackLayout;startSize=20;rounded=0;shadow=0;comic=0;labelBackgroundColor=none;strokeWidth=1;fontFamily=Verdana;fontSize=12;align=center;resizeWidth=1;resizeHeight=1;" parent="1" vertex="1">
          <mxGeometry x="-20" y="30" width="1040" height="990" as="geometry" />
        </mxCell>
        <mxCell id="77pTD7eTiRxtilX6csrS-48" style="edgeStyle=elbowEdgeStyle;rounded=0;orthogonalLoop=1;jettySize=auto;html=1;endArrow=open;endFill=0;exitX=0.713;exitY=0.499;exitDx=0;exitDy=0;exitPerimeter=0;" edge="1" parent="l6AXEJIedwvJvGxH8fS5-96" source="77pTD7eTiRxtilX6csrS-26" target="77pTD7eTiRxtilX6csrS-5">
          <mxGeometry relative="1" as="geometry">
            <mxPoint x="543.88" y="381.47" as="sourcePoint" />
            <mxPoint x="479.9999999999999" y="435.5300000000002" as="targetPoint" />
            <Array as="points">
              <mxPoint x="585" y="230" />
            </Array>
          </mxGeometry>
        </mxCell>
        <mxCell id="l6AXEJIedwvJvGxH8fS5-97" value="Client" style="swimlane;html=1;startSize=20;" parent="l6AXEJIedwvJvGxH8fS5-96" vertex="1">
          <mxGeometry y="20" width="680" height="970" as="geometry" />
        </mxCell>
        <mxCell id="l6AXEJIedwvJvGxH8fS5-163" style="edgeStyle=orthogonalEdgeStyle;rounded=0;orthogonalLoop=1;jettySize=auto;html=1;endArrow=open;endFill=0;" parent="l6AXEJIedwvJvGxH8fS5-97" source="l6AXEJIedwvJvGxH8fS5-162" edge="1">
          <mxGeometry relative="1" as="geometry">
            <mxPoint x="93" y="140" as="targetPoint" />
          </mxGeometry>
        </mxCell>
        <mxCell id="l6AXEJIedwvJvGxH8fS5-162" value="" style="ellipse;fillColor=strokeColor;html=1;" parent="l6AXEJIedwvJvGxH8fS5-97" vertex="1">
          <mxGeometry x="78" y="40" width="30" height="30" as="geometry" />
        </mxCell>
        <mxCell id="77pTD7eTiRxtilX6csrS-1" value="Sign In" style="html=1;rounded=1;absoluteArcSize=1;arcSize=10;whiteSpace=wrap;" vertex="1" parent="l6AXEJIedwvJvGxH8fS5-97">
          <mxGeometry x="43" y="140" width="100" height="30" as="geometry" />
        </mxCell>
        <mxCell id="77pTD7eTiRxtilX6csrS-11" value="Have an account?" style="rhombus;" vertex="1" parent="l6AXEJIedwvJvGxH8fS5-97">
          <mxGeometry x="63" y="290" width="140" height="60" as="geometry" />
        </mxCell>
        <mxCell id="77pTD7eTiRxtilX6csrS-12" style="edgeStyle=elbowEdgeStyle;rounded=0;orthogonalLoop=1;jettySize=auto;html=1;endArrow=open;endFill=0;entryX=0.5;entryY=0;entryDx=0;entryDy=0;" edge="1" parent="l6AXEJIedwvJvGxH8fS5-97" source="77pTD7eTiRxtilX6csrS-1" target="77pTD7eTiRxtilX6csrS-11">
          <mxGeometry relative="1" as="geometry">
            <mxPoint x="163" y="160" as="sourcePoint" />
            <mxPoint x="163" y="230" as="targetPoint" />
          </mxGeometry>
        </mxCell>
        <mxCell id="77pTD7eTiRxtilX6csrS-13" style="edgeStyle=elbowEdgeStyle;rounded=0;orthogonalLoop=1;jettySize=auto;html=1;endArrow=open;endFill=0;" edge="1" parent="l6AXEJIedwvJvGxH8fS5-97" source="77pTD7eTiRxtilX6csrS-11" target="77pTD7eTiRxtilX6csrS-16">
          <mxGeometry relative="1" as="geometry">
            <mxPoint x="193" y="220" as="sourcePoint" />
            <mxPoint x="273" y="230" as="targetPoint" />
          </mxGeometry>
        </mxCell>
        <mxCell id="77pTD7eTiRxtilX6csrS-14" value="No" style="edgeLabel;html=1;align=center;verticalAlign=middle;resizable=0;points=[];" vertex="1" connectable="0" parent="77pTD7eTiRxtilX6csrS-13">
          <mxGeometry x="-0.2327" y="-1" relative="1" as="geometry">
            <mxPoint as="offset" />
          </mxGeometry>
        </mxCell>
        <mxCell id="77pTD7eTiRxtilX6csrS-25" style="edgeStyle=elbowEdgeStyle;rounded=0;orthogonalLoop=1;jettySize=auto;html=1;endArrow=open;endFill=0;exitX=0.841;exitY=0.72;exitDx=0;exitDy=0;exitPerimeter=0;" edge="1" parent="l6AXEJIedwvJvGxH8fS5-97" source="77pTD7eTiRxtilX6csrS-15" target="77pTD7eTiRxtilX6csrS-19">
          <mxGeometry relative="1" as="geometry">
            <mxPoint x="273" y="220" as="sourcePoint" />
            <Array as="points">
              <mxPoint x="273" y="280" />
            </Array>
          </mxGeometry>
        </mxCell>
        <mxCell id="77pTD7eTiRxtilX6csrS-15" value="" style="html=1;points=[];perimeter=orthogonalPerimeter;fillColor=strokeColor;rotation=90;" vertex="1" parent="l6AXEJIedwvJvGxH8fS5-97">
          <mxGeometry x="288" y="170" width="5" height="80" as="geometry" />
        </mxCell>
        <mxCell id="77pTD7eTiRxtilX6csrS-22" value="" style="edgeStyle=elbowEdgeStyle;rounded=0;orthogonalLoop=1;jettySize=auto;html=1;endArrow=open;endFill=0;" edge="1" parent="l6AXEJIedwvJvGxH8fS5-97" source="77pTD7eTiRxtilX6csrS-16" target="77pTD7eTiRxtilX6csrS-15">
          <mxGeometry relative="1" as="geometry" />
        </mxCell>
        <mxCell id="77pTD7eTiRxtilX6csrS-16" value="Sign Up" style="html=1;rounded=1;absoluteArcSize=1;arcSize=10;whiteSpace=wrap;" vertex="1" parent="l6AXEJIedwvJvGxH8fS5-97">
          <mxGeometry x="240.5" y="140" width="100" height="30" as="geometry" />
        </mxCell>
        <mxCell id="77pTD7eTiRxtilX6csrS-19" value="Sign Up By Google" style="html=1;rounded=1;absoluteArcSize=1;arcSize=10;whiteSpace=wrap;" vertex="1" parent="l6AXEJIedwvJvGxH8fS5-97">
          <mxGeometry x="303" y="340" width="130" height="30" as="geometry" />
        </mxCell>
        <mxCell id="77pTD7eTiRxtilX6csrS-20" value="Sign Up By Facebook" style="html=1;rounded=1;absoluteArcSize=1;arcSize=10;whiteSpace=wrap;" vertex="1" parent="l6AXEJIedwvJvGxH8fS5-97">
          <mxGeometry x="303" y="290" width="130" height="30" as="geometry" />
        </mxCell>
        <mxCell id="77pTD7eTiRxtilX6csrS-26" value="" style="html=1;points=[];perimeter=orthogonalPerimeter;fillColor=strokeColor;rotation=0;" vertex="1" parent="l6AXEJIedwvJvGxH8fS5-97">
          <mxGeometry x="473" y="290" width="10" height="80" as="geometry" />
        </mxCell>
        <mxCell id="77pTD7eTiRxtilX6csrS-50" style="edgeStyle=elbowEdgeStyle;rounded=0;orthogonalLoop=1;jettySize=auto;html=1;endArrow=open;endFill=0;" edge="1" parent="l6AXEJIedwvJvGxH8fS5-97" source="77pTD7eTiRxtilX6csrS-19" target="77pTD7eTiRxtilX6csrS-26">
          <mxGeometry relative="1" as="geometry">
            <mxPoint x="311" y="240" as="sourcePoint" />
            <mxPoint x="463" y="330" as="targetPoint" />
          </mxGeometry>
        </mxCell>
        <mxCell id="77pTD7eTiRxtilX6csrS-72" style="edgeStyle=elbowEdgeStyle;rounded=0;orthogonalLoop=1;jettySize=auto;html=1;endArrow=open;endFill=0;" edge="1" parent="l6AXEJIedwvJvGxH8fS5-97" source="77pTD7eTiRxtilX6csrS-20" target="77pTD7eTiRxtilX6csrS-26">
          <mxGeometry relative="1" as="geometry">
            <mxPoint x="443" y="358" as="sourcePoint" />
            <mxPoint x="483" y="333" as="targetPoint" />
          </mxGeometry>
        </mxCell>
        <mxCell id="77pTD7eTiRxtilX6csrS-73" style="edgeStyle=elbowEdgeStyle;rounded=0;orthogonalLoop=1;jettySize=auto;html=1;endArrow=open;endFill=0;exitX=0.794;exitY=0.461;exitDx=0;exitDy=0;exitPerimeter=0;entryX=0;entryY=0.5;entryDx=0;entryDy=0;" edge="1" parent="l6AXEJIedwvJvGxH8fS5-97" source="77pTD7eTiRxtilX6csrS-15" target="77pTD7eTiRxtilX6csrS-20">
          <mxGeometry relative="1" as="geometry">
            <mxPoint x="283" y="220" as="sourcePoint" />
            <mxPoint x="313" y="365" as="targetPoint" />
            <Array as="points">
              <mxPoint x="293" y="290" />
            </Array>
          </mxGeometry>
        </mxCell>
        <mxCell id="77pTD7eTiRxtilX6csrS-74" style="edgeStyle=elbowEdgeStyle;rounded=0;orthogonalLoop=1;jettySize=auto;html=1;endArrow=open;endFill=0;exitX=0.5;exitY=1;exitDx=0;exitDy=0;" edge="1" parent="l6AXEJIedwvJvGxH8fS5-97" source="77pTD7eTiRxtilX6csrS-11" target="77pTD7eTiRxtilX6csrS-102">
          <mxGeometry relative="1" as="geometry">
            <mxPoint x="132.98000000000002" y="360" as="sourcePoint" />
            <mxPoint x="132.98000000000002" y="480" as="targetPoint" />
            <Array as="points">
              <mxPoint x="140" y="410" />
            </Array>
          </mxGeometry>
        </mxCell>
        <mxCell id="77pTD7eTiRxtilX6csrS-76" value="Yes" style="edgeLabel;html=1;align=center;verticalAlign=middle;resizable=0;points=[];" vertex="1" connectable="0" parent="77pTD7eTiRxtilX6csrS-74">
          <mxGeometry x="-0.081" relative="1" as="geometry">
            <mxPoint as="offset" />
          </mxGeometry>
        </mxCell>
        <mxCell id="77pTD7eTiRxtilX6csrS-77" value="" style="html=1;points=[];perimeter=orthogonalPerimeter;fillColor=strokeColor;rotation=0;" vertex="1" parent="l6AXEJIedwvJvGxH8fS5-97">
          <mxGeometry x="196.45000000000002" y="400" width="6.55" height="80" as="geometry" />
        </mxCell>
        <mxCell id="77pTD7eTiRxtilX6csrS-92" style="edgeStyle=elbowEdgeStyle;rounded=0;orthogonalLoop=1;jettySize=auto;html=1;" edge="1" parent="l6AXEJIedwvJvGxH8fS5-97" source="77pTD7eTiRxtilX6csrS-78" target="77pTD7eTiRxtilX6csrS-85">
          <mxGeometry relative="1" as="geometry" />
        </mxCell>
        <mxCell id="77pTD7eTiRxtilX6csrS-78" value="Input username" style="html=1;rounded=1;absoluteArcSize=1;arcSize=10;whiteSpace=wrap;" vertex="1" parent="l6AXEJIedwvJvGxH8fS5-97">
          <mxGeometry x="293" y="460" width="130" height="30" as="geometry" />
        </mxCell>
        <mxCell id="77pTD7eTiRxtilX6csrS-79" value="Input password" style="html=1;rounded=1;absoluteArcSize=1;arcSize=10;whiteSpace=wrap;" vertex="1" parent="l6AXEJIedwvJvGxH8fS5-97">
          <mxGeometry x="293" y="410" width="130" height="30" as="geometry" />
        </mxCell>
        <mxCell id="77pTD7eTiRxtilX6csrS-82" style="edgeStyle=elbowEdgeStyle;rounded=0;orthogonalLoop=1;jettySize=auto;html=1;endArrow=open;endFill=0;elbow=vertical;" edge="1" parent="l6AXEJIedwvJvGxH8fS5-97" source="77pTD7eTiRxtilX6csrS-77" target="77pTD7eTiRxtilX6csrS-78">
          <mxGeometry relative="1" as="geometry">
            <mxPoint x="163" y="420" as="sourcePoint" />
            <mxPoint x="163" y="494" as="targetPoint" />
            <Array as="points">
              <mxPoint x="280" y="470" />
            </Array>
          </mxGeometry>
        </mxCell>
        <mxCell id="77pTD7eTiRxtilX6csrS-84" style="edgeStyle=elbowEdgeStyle;rounded=0;orthogonalLoop=1;jettySize=auto;html=1;endArrow=open;endFill=0;elbow=vertical;" edge="1" parent="l6AXEJIedwvJvGxH8fS5-97" source="77pTD7eTiRxtilX6csrS-77" target="77pTD7eTiRxtilX6csrS-79">
          <mxGeometry relative="1" as="geometry">
            <mxPoint x="143" y="440" as="sourcePoint" />
            <mxPoint x="323" y="460" as="targetPoint" />
            <Array as="points">
              <mxPoint x="280" y="410" />
            </Array>
          </mxGeometry>
        </mxCell>
        <mxCell id="77pTD7eTiRxtilX6csrS-85" value="" style="html=1;points=[];perimeter=orthogonalPerimeter;fillColor=strokeColor;rotation=0;" vertex="1" parent="l6AXEJIedwvJvGxH8fS5-97">
          <mxGeometry x="473" y="410" width="6.55" height="80" as="geometry" />
        </mxCell>
        <mxCell id="77pTD7eTiRxtilX6csrS-91" style="edgeStyle=elbowEdgeStyle;rounded=0;orthogonalLoop=1;jettySize=auto;html=1;" edge="1" parent="l6AXEJIedwvJvGxH8fS5-97" source="77pTD7eTiRxtilX6csrS-79" target="77pTD7eTiRxtilX6csrS-85">
          <mxGeometry relative="1" as="geometry" />
        </mxCell>
        <mxCell id="77pTD7eTiRxtilX6csrS-86" value="Valid account?" style="rhombus;" vertex="1" parent="l6AXEJIedwvJvGxH8fS5-97">
          <mxGeometry x="510" y="420" width="140" height="60" as="geometry" />
        </mxCell>
        <mxCell id="77pTD7eTiRxtilX6csrS-87" value="" style="edgeStyle=elbowEdgeStyle;rounded=0;orthogonalLoop=1;jettySize=auto;html=1;entryX=0;entryY=0.5;entryDx=0;entryDy=0;" edge="1" parent="l6AXEJIedwvJvGxH8fS5-97" source="77pTD7eTiRxtilX6csrS-85" target="77pTD7eTiRxtilX6csrS-86">
          <mxGeometry relative="1" as="geometry" />
        </mxCell>
        <mxCell id="77pTD7eTiRxtilX6csrS-89" value="" style="edgeStyle=orthogonalEdgeStyle;rounded=0;orthogonalLoop=1;jettySize=auto;html=1;endArrow=open;endFill=0;exitX=0.5;exitY=1;exitDx=0;exitDy=0;elbow=vertical;" edge="1" parent="l6AXEJIedwvJvGxH8fS5-97" source="77pTD7eTiRxtilX6csrS-86" target="77pTD7eTiRxtilX6csrS-102">
          <mxGeometry relative="1" as="geometry">
            <mxPoint x="193" y="620" as="targetPoint" />
            <Array as="points">
              <mxPoint x="580" y="600" />
              <mxPoint x="145" y="600" />
            </Array>
          </mxGeometry>
        </mxCell>
        <mxCell id="77pTD7eTiRxtilX6csrS-90" value="No" style="edgeLabel;html=1;align=center;verticalAlign=middle;resizable=0;points=[];" vertex="1" connectable="0" parent="77pTD7eTiRxtilX6csrS-89">
          <mxGeometry x="-0.5802" relative="1" as="geometry">
            <mxPoint x="-134" as="offset" />
          </mxGeometry>
        </mxCell>
        <mxCell id="77pTD7eTiRxtilX6csrS-103" style="edgeStyle=elbowEdgeStyle;rounded=0;orthogonalLoop=1;jettySize=auto;html=1;endArrow=open;endFill=0;" edge="1" parent="l6AXEJIedwvJvGxH8fS5-97" source="77pTD7eTiRxtilX6csrS-102" target="77pTD7eTiRxtilX6csrS-77">
          <mxGeometry relative="1" as="geometry" />
        </mxCell>
        <mxCell id="77pTD7eTiRxtilX6csrS-102" value="" style="rhombus;" vertex="1" parent="l6AXEJIedwvJvGxH8fS5-97">
          <mxGeometry x="130" y="425" width="30" height="30" as="geometry" />
        </mxCell>
        <mxCell id="77pTD7eTiRxtilX6csrS-107" value="" style="ellipse;html=1;shape=endState;fillColor=strokeColor;" vertex="1" parent="l6AXEJIedwvJvGxH8fS5-97">
          <mxGeometry x="63" y="900" width="30" height="30" as="geometry" />
        </mxCell>
        <mxCell id="77pTD7eTiRxtilX6csrS-113" style="edgeStyle=elbowEdgeStyle;rounded=0;orthogonalLoop=1;jettySize=auto;html=1;endArrow=openThin;endFill=0;" edge="1" parent="l6AXEJIedwvJvGxH8fS5-97" source="77pTD7eTiRxtilX6csrS-112" target="77pTD7eTiRxtilX6csrS-107">
          <mxGeometry relative="1" as="geometry" />
        </mxCell>
        <mxCell id="77pTD7eTiRxtilX6csrS-112" value="LoginPage successful" style="html=1;rounded=1;absoluteArcSize=1;arcSize=10;whiteSpace=wrap;" vertex="1" parent="l6AXEJIedwvJvGxH8fS5-97">
          <mxGeometry x="290" y="900" width="130" height="30" as="geometry" />
        </mxCell>
        <mxCell id="l6AXEJIedwvJvGxH8fS5-106" value="System" style="swimlane;html=1;startSize=20;" parent="l6AXEJIedwvJvGxH8fS5-96" vertex="1">
          <mxGeometry x="680" y="20" width="360" height="970" as="geometry" />
        </mxCell>
        <mxCell id="77pTD7eTiRxtilX6csrS-5" value="Create new account" style="html=1;rounded=1;absoluteArcSize=1;arcSize=10;whiteSpace=wrap;" vertex="1" parent="l6AXEJIedwvJvGxH8fS5-106">
          <mxGeometry x="110" y="40" width="130" height="30" as="geometry" />
        </mxCell>
        <mxCell id="77pTD7eTiRxtilX6csrS-93" value="Check account" style="rhombus;" vertex="1" parent="l6AXEJIedwvJvGxH8fS5-106">
          <mxGeometry x="110" y="420" width="140" height="60" as="geometry" />
        </mxCell>
        <mxCell id="77pTD7eTiRxtilX6csrS-100" value="" style="edgeStyle=elbowEdgeStyle;rounded=0;orthogonalLoop=1;jettySize=auto;html=1;entryX=0;entryY=0.5;entryDx=0;entryDy=0;elbow=horizontal;" edge="1" parent="l6AXEJIedwvJvGxH8fS5-96" source="77pTD7eTiRxtilX6csrS-86" target="77pTD7eTiRxtilX6csrS-93">
          <mxGeometry relative="1" as="geometry">
            <mxPoint x="759.9999999999995" y="470" as="targetPoint" />
          </mxGeometry>
        </mxCell>
        <mxCell id="77pTD7eTiRxtilX6csrS-101" value="Yes" style="edgeLabel;html=1;align=center;verticalAlign=middle;resizable=0;points=[];" vertex="1" connectable="0" parent="77pTD7eTiRxtilX6csrS-100">
          <mxGeometry x="-0.0714" relative="1" as="geometry">
            <mxPoint as="offset" />
          </mxGeometry>
        </mxCell>
        <mxCell id="77pTD7eTiRxtilX6csrS-104" style="edgeStyle=orthogonalEdgeStyle;rounded=0;orthogonalLoop=1;jettySize=auto;html=1;entryX=0;entryY=0.5;entryDx=0;entryDy=0;endArrow=open;endFill=0;" edge="1" parent="l6AXEJIedwvJvGxH8fS5-96" source="77pTD7eTiRxtilX6csrS-93" target="77pTD7eTiRxtilX6csrS-102">
          <mxGeometry relative="1" as="geometry">
            <mxPoint x="90" y="500" as="targetPoint" />
            <Array as="points">
              <mxPoint x="860" y="770" />
              <mxPoint x="70" y="770" />
              <mxPoint x="70" y="460" />
            </Array>
          </mxGeometry>
        </mxCell>
        <mxCell id="77pTD7eTiRxtilX6csrS-106" value="No" style="edgeLabel;html=1;align=center;verticalAlign=middle;resizable=0;points=[];" vertex="1" connectable="0" parent="77pTD7eTiRxtilX6csrS-104">
          <mxGeometry x="-0.0076" relative="1" as="geometry">
            <mxPoint as="offset" />
          </mxGeometry>
        </mxCell>
        <mxCell id="77pTD7eTiRxtilX6csrS-110" style="edgeStyle=orthogonalEdgeStyle;rounded=0;orthogonalLoop=1;jettySize=auto;html=1;" edge="1" parent="l6AXEJIedwvJvGxH8fS5-96" source="77pTD7eTiRxtilX6csrS-93" target="77pTD7eTiRxtilX6csrS-112">
          <mxGeometry relative="1" as="geometry">
            <Array as="points">
              <mxPoint x="960" y="470" />
              <mxPoint x="960" y="935" />
              <mxPoint x="306" y="935" />
            </Array>
          </mxGeometry>
        </mxCell>
        <mxCell id="77pTD7eTiRxtilX6csrS-111" value="Yes" style="edgeLabel;html=1;align=center;verticalAlign=middle;resizable=0;points=[];" vertex="1" connectable="0" parent="77pTD7eTiRxtilX6csrS-110">
          <mxGeometry x="0.5192" y="1" relative="1" as="geometry">
            <mxPoint as="offset" />
          </mxGeometry>
        </mxCell>
        <mxCell id="77pTD7eTiRxtilX6csrS-114" value="Module Authntication" style="shape=note2;boundedLbl=1;whiteSpace=wrap;html=1;size=25;verticalAlign=top;align=center;" vertex="1" parent="1">
          <mxGeometry x="-200" y="30" width="120" height="60" as="geometry" />
        </mxCell>
      </root>
    </mxGraphModel>
  </diagram>
</mxfile>
